<!-- Generated by IcoMoon.io -->
<svg version="1.1" xmlns="http://www.w3.org/2000/svg" width="20" height="20" viewBox="0 0 20 20">
<title>iconTweet</title>
<path d="M3.926 7.199c-0.114-1.751 0.432-3.329 1.538-4.444 0.089-0.089 0.185-0.178 0.303-0.279l0.221-0.189 3.712 3.742-0.444 0.44-3.297-3.324c-0.017 0.017-0.034 0.033-0.050 0.050-0.978 0.985-1.46 2.393-1.357 3.963l-0.624 0.041z"></path>
<path d="M10.779 17.713c-0.578 0-1.091-0.059-1.715-0.198l-0.244-0.054-0.001-0.25c0 0-0.004-1.128-0.007-2.507-0.108 0.076-0.226 0.139-0.35 0.187l-0.043 0.017-0.046 0.003c-0.244 0.018-0.472 0.027-0.695 0.027-4.233 0-7.677-2.805-7.677-6.253 0-0.121 0.006-0.248 0.018-0.412l0.023-0.288h7.829c0.438 0 0.846 0.175 1.148 0.467 0.56-1.904 2.243-3.318 4.26-3.477 0.3-0.028 0.535-0.025 0.844 0.004 0.035 0.003 0.070 0.008 0.105 0.013l0.047 0.006c0.101 0.013 0.2 0.027 0.299 0.046 0.047 0.009 0.093 0.020 0.138 0.030l0.037 0.008c0.090 0.022 0.177 0.043 0.263 0.068 0.060 0.018 0.12 0.037 0.18 0.057 0.081 0.027 0.16 0.057 0.238 0.088l0.023 0.009c0.055 0.022 0.109 0.043 0.162 0.067 0.069 0.030 0.138 0.065 0.207 0.1l0.059 0.030c0.044 0.022 0.089 0.044 0.131 0.069 0.044 0.025 0.090 0.053 0.135 0.081l0.051 0.032c0.143 0.089 0.277 0.183 0.403 0.28l0.026 0.019c0.024 0.018 0.048 0.036 0.072 0.055 0.067 0.054 0.132 0.113 0.196 0.171l0.062 0.057c0.019 0.018 0.039 0.035 0.057 0.053 0.070 0.068 0.137 0.138 0.203 0.21l0.033 0.036c0.018 0.020 0.036 0.040 0.054 0.061 0.063 0.071 0.127 0.149 0.192 0.235 0.014 0.018 0.029 0.038 0.044 0.059l0.016 0.022c0.066 0.091 0.129 0.18 0.188 0.274 0.006 0.009 0.015 0.025 0.024 0.041 0.28 0.453 0.481 0.938 0.601 1.445 0.049 0.129 0.083 0.324 0.133 0.608 0.052 0.294 0.114 0.709 0.114 1.014 0 0.376-0.036 0.769-0.111 1.198l-0.005 0.068c-0.004 0.022-0.010 0.044-0.015 0.065l-0.006 0.026c-0.025 0.127-0.056 0.253-0.086 0.371-0.027 0.106-0.052 0.205-0.083 0.303-0.037 0.123-0.078 0.245-0.121 0.362-0.034 0.095-0.072 0.19-0.11 0.284-0.048 0.117-0.099 0.234-0.153 0.348-0.041 0.086-0.084 0.168-0.127 0.249l-0.030 0.058c-0.054 0.101-0.108 0.202-0.167 0.299-0.045 0.075-0.094 0.15-0.144 0.225l-0.056 0.085c-0.057 0.088-0.115 0.176-0.178 0.26-0.047 0.063-0.096 0.124-0.145 0.184l-0.104 0.13c-0.058 0.074-0.117 0.148-0.18 0.219-0.145 0.164-0.298 0.323-0.455 0.471-0.053 0.050-0.109 0.098-0.165 0.146l-0.132 0.114c-0.075 0.066-0.151 0.133-0.23 0.195-0.063 0.050-0.13 0.099-0.198 0.147l-0.095 0.068c-0.091 0.066-0.182 0.132-0.277 0.195-0.077 0.050-0.154 0.095-0.23 0.141l-0.049 0.029c-0.11 0.065-0.22 0.13-0.332 0.19-0.096 0.051-0.193 0.099-0.29 0.146-0.119 0.057-0.238 0.112-0.36 0.163-0.098 0.041-0.196 0.081-0.295 0.119-0.13 0.049-0.26 0.092-0.39 0.134-0.099 0.032-0.198 0.063-0.299 0.091-0.148 0.041-0.298 0.075-0.427 0.104l-0.076 0.017c-0.070 0.016-0.141 0.032-0.213 0.045-0.154 0.028-0.308 0.049-0.49 0.071-0.030 0.004-0.060 0.008-0.090 0.012-0.052 0.007-0.104 0.015-0.156 0.020-0.272 0.024-0.521 0.036-0.763 0.036zM9.443 16.956c0.703 0.137 1.283 0.167 2.040 0.099 0.041-0.004 0.084-0.010 0.128-0.016 0.034-0.005 0.067-0.010 0.101-0.014 0.172-0.021 0.315-0.040 0.454-0.065 0.063-0.011 0.124-0.025 0.185-0.039l0.080-0.018c0.12-0.027 0.26-0.058 0.394-0.095 0.093-0.026 0.184-0.055 0.275-0.084 0.121-0.039 0.242-0.080 0.361-0.124 0.090-0.035 0.181-0.071 0.273-0.11 0.112-0.048 0.223-0.098 0.332-0.151 0.090-0.043 0.178-0.087 0.266-0.133 0.103-0.055 0.205-0.115 0.306-0.175l0.050-0.030c0.070-0.042 0.14-0.084 0.209-0.128 0.084-0.055 0.168-0.116 0.251-0.177l0.099-0.071c0.058-0.042 0.117-0.083 0.173-0.128 0.072-0.056 0.138-0.115 0.205-0.174l0.055-0.048c0.028-0.025 0.057-0.049 0.085-0.073 0.048-0.041 0.096-0.081 0.141-0.124 0.143-0.135 0.283-0.28 0.416-0.432 0.055-0.062 0.106-0.127 0.157-0.191l0.11-0.138c0.043-0.053 0.087-0.106 0.128-0.162 0.055-0.075 0.106-0.152 0.156-0.23l0.059-0.090c0.044-0.066 0.088-0.132 0.128-0.2 0.055-0.090 0.103-0.182 0.152-0.273l0.028-0.053c0.040-0.075 0.079-0.151 0.116-0.228 0.048-0.102 0.095-0.209 0.139-0.317 0.036-0.087 0.070-0.173 0.101-0.261 0.039-0.107 0.076-0.218 0.111-0.332 0.028-0.090 0.050-0.179 0.073-0.268 0.030-0.118 0.058-0.231 0.081-0.346 0.005-0.022 0.009-0.039 0.013-0.057 0-0.001 0.001-0.003 0.001-0.004l0.005-0.057c0.072-0.404 0.106-0.769 0.106-1.117-0-0.333-0.1-0.904-0.164-1.213h-0.024l-0.043-0.263c-0.105-0.443-0.28-0.867-0.522-1.258l-0.024-0.040c-0.052-0.082-0.107-0.16-0.164-0.238l-0.016-0.021c-0.012-0.016-0.023-0.032-0.036-0.048-0.057-0.075-0.112-0.142-0.169-0.207-0.017-0.021-0.031-0.035-0.044-0.050l-0.033-0.037c-0.053-0.057-0.111-0.119-0.173-0.179-0.014-0.014-0.029-0.027-0.043-0.040l-0.062-0.057c-0.056-0.051-0.111-0.101-0.169-0.148-0.016-0.013-0.032-0.025-0.048-0.037l-0.035-0.026c-0.112-0.087-0.23-0.168-0.352-0.245l-0.054-0.033c-0.036-0.023-0.072-0.045-0.11-0.066-0.035-0.020-0.069-0.037-0.103-0.054l-0.057-0.029c-0.065-0.033-0.125-0.063-0.186-0.090-0.046-0.021-0.091-0.038-0.137-0.056l-0.023-0.009c-0.067-0.027-0.136-0.052-0.205-0.075-0.052-0.017-0.105-0.034-0.158-0.050-0.076-0.023-0.152-0.042-0.228-0.060l-0.034-0.008c-0.040-0.009-0.079-0.018-0.118-0.026-0.085-0.016-0.171-0.029-0.259-0.040l-0.057-0.008c-0.025-0.003-0.050-0.007-0.075-0.010-0.269-0.025-0.459-0.030-0.731-0.004-1.998 0.157-3.618 1.725-3.857 3.729l-0.612 0.046c-0.124-0.449-0.532-0.763-0.992-0.763h-7.244c-0 0.026-0.001 0.051-0.001 0.075 0 3.103 3.164 5.628 7.052 5.628 0.193 0 0.389-0.007 0.6-0.022 0.252-0.11 0.452-0.321 0.553-0.585l0.604 0.111c0.002 1.335 0.006 2.612 0.008 3.139z"></path>
<path d="M10.907 17.71c-0.083 0-0.164-0.001-0.243-0.003l-0.094-0.002c-0.067-0.001-0.134-0.003-0.202-0.006-0.172-0.010-0.339-0.029-0.495-0.048l-0.075-0.008c-0.057-0.006-0.114-0.011-0.171-0.020-0.26-0.039-0.512-0.087-0.748-0.145-0.562-0.136-1.048-0.315-1.622-0.597l0.275-0.561c0.532 0.261 0.979 0.425 1.495 0.551 0.218 0.053 0.451 0.098 0.692 0.133 0.047 0.007 0.094 0.011 0.141 0.016l0.086 0.009c0.148 0.018 0.304 0.035 0.459 0.044 0.059 0.003 0.118 0.004 0.176 0.005l0.098 0.002c0.128 0.002 0.268 0.004 0.404 0 0.084-0.003 0.169-0.009 0.254-0.015l0.032-0.002 0.044 0.623-0.032 0.002c-0.093 0.007-0.185 0.013-0.277 0.016-0.067 0.002-0.132 0.003-0.197 0.003z"></path>
<path d="M15.106 9.377c-0.521 0-0.945-0.426-0.945-0.95s0.424-0.95 0.945-0.95c0.521 0 0.945 0.426 0.945 0.95s-0.424 0.95-0.945 0.95zM15.106 8.102c-0.176 0-0.32 0.146-0.32 0.325s0.143 0.325 0.32 0.325c0.177 0 0.32-0.146 0.32-0.325s-0.144-0.325-0.32-0.325z"></path>
<path d="M15.739 8.115h4.261v0.625h-4.261v-0.625z"></path>
<path d="M19.646 6.617l0.196 0.594-4.005 1.32-0.196-0.594 4.005-1.32z"></path>
<path d="M0.953 10.374h5.252v0.625h-5.252v-0.625z"></path>
<path d="M6.517 11.801l0.165 0.603-3.792 1.041-0.165-0.603 3.792-1.041z"></path>
<path d="M7.499 12.849l0.364 0.508-1.735 1.245-0.364-0.508 1.735-1.245z"></path>
<path d="M12.819 17.13l-0.052-0.371c-0.033-0.237-0.050-0.48-0.050-0.722 0-2.863 2.235-5.225 5.199-5.495l0.057 0.622c-2.64 0.24-4.631 2.335-4.631 4.872 0 0.213 0.015 0.427 0.044 0.636l-0.196 0.027 0.098 0.273c-0.037 0.013-0.075 0.027-0.114 0.039l-0.355 0.117z"></path>
</svg>
